<svg id="Layer_2" data-name="Layer 2" xmlns="http://www.w3.org/2000/svg" xmlns:xlink="http://www.w3.org/1999/xlink" viewBox="0 0 230 175.07">
  <defs>
    <linearGradient id="linear-gradient" x1="126.08" y1="89.66" x2="131.12" y2="93.98" gradientUnits="userSpaceOnUse">
      <stop offset="0" stop-color="#6ce900"/>
      <stop offset="0.24" stop-color="#6ee902"/>
      <stop offset="0.33" stop-color="#75eb07"/>
      <stop offset="0.39" stop-color="#80ed10"/>
      <stop offset="0.44" stop-color="#91f11e"/>
      <stop offset="0.48" stop-color="#a7f530"/>
      <stop offset="0.52" stop-color="#c2fb45"/>
      <stop offset="0.54" stop-color="#d6ff55"/>
    </linearGradient>
  </defs>
  <g>
    <rect x="2.5" y="2.5" width="225" height="170.07" rx="31.28" fill="#737373" stroke="#000" stroke-miterlimit="10" stroke-width="5"/>
    <g>
      <path d="M197.38,155.91H43.49a12.41,12.41,0,0,1-12.41-12.4V56.39A12.41,12.41,0,0,1,43.49,44l71.34-.09a6.36,6.36,0,0,0,3.6-1.12l17.51-12A10.39,10.39,0,0,1,141.8,29h55.58a12.4,12.4,0,0,1,12.4,12.4V143.51A12.4,12.4,0,0,1,197.38,155.91Z" transform="translate(-5.43 -4.92)" fill="#bababa"/>
      <path d="M197.38,155.91H43.49a12.41,12.41,0,0,1-12.41-12.4V56.39A12.41,12.41,0,0,1,43.49,44l71.34-.09a6.36,6.36,0,0,0,3.6-1.12l17.51-12A10.39,10.39,0,0,1,141.8,29h55.58a12.4,12.4,0,0,1,12.4,12.4V143.51A12.4,12.4,0,0,1,197.38,155.91Z" transform="translate(-5.43 -4.92)" fill="none" stroke="#000" stroke-linecap="round" stroke-miterlimit="10" stroke-width="5" stroke-dasharray="91.94 9.19 91.94 0"/>
    </g>
    <rect x="38.6" y="53.56" width="152.81" height="53.21" rx="6.81" stroke="#000" stroke-miterlimit="10" stroke-width="5" fill="url(#linear-gradient)"/>
    <rect x="38.57" y="116.84" width="26.97" height="19.42" rx="7.64" fill="#ff3a35" stroke="#000" stroke-miterlimit="10" stroke-width="5"/>
    <rect x="80.53" y="116.66" width="26.97" height="19.42" rx="7.64" fill="#fff" stroke="#000" stroke-miterlimit="10" stroke-width="5"/>
    <rect x="122.5" y="117.38" width="26.97" height="19.42" rx="7.64" fill="#fff" stroke="#000" stroke-miterlimit="10" stroke-width="5"/>
    <rect x="164.47" y="117.74" width="26.97" height="19.42" rx="7.64" fill="#fff" stroke="#000" stroke-miterlimit="10" stroke-width="5"/>
  </g>
</svg>
